<svg version="1.1" xmlns="http://www.w3.org/2000/svg" xmlns:xlink="http://www.w3.org/1999/xlink" width="96" height="96" viewBox="0,0,256,256">
  <defs>
    <clipPath id="clip-1">
      <path d="M0,256v-256h256v256zM228.2108,171.1324l-1.3188,-0.2268l0.8568,-1.2054c3.3684,-4.8678 2.7804,-11.4408 -1.4028,-15.6198l-5.4264,-5.4264c-4.179,-4.179 -10.7478,-4.7754 -15.708,-1.344l-1.1172,0.798l-0.2142,-1.2432c-0.9408,-5.9472 -6.0144,-10.2648 -12.0582,-10.2648h-7.644c-6.0438,0 -11.1174,4.3176 -12.0372,10.1514l-0.2352,1.3566l-1.2054,-0.8568c-4.872,-3.3684 -11.4366,-2.7804 -15.6198,1.4028l-5.4222,5.4264c-4.1832,4.1832 -4.7754,10.752 -1.344,15.708l0.7938,1.1172l-1.2432,0.2142c-5.9472,0.9408 -10.2648,6.0144 -10.2648,12.0582v7.6398c0,6.0438 4.3176,11.1174 10.1514,12.0414l1.3566,0.2352l-0.8568,1.2054c-3.3684,4.8678 -2.7804,11.4408 1.4028,15.6198l5.4264,5.4264c4.1832,4.1832 10.752,4.7796 15.708,1.344l1.1172,-0.7938l0.2142,1.2432c0.9408,5.943 6.0144,10.2606 12.0582,10.2606h7.6398c6.0438,0 11.1174,-4.3176 12.0414,-10.1514l0.2352,-1.3566l1.2054,0.8568c4.8678,3.3642 11.4408,2.7804 15.6198,-1.4028l5.4264,-5.4264c4.1832,-4.1832 4.7754,-10.752 1.344,-15.708l-0.7938,-1.1172l1.2432,-0.2142c5.943,-0.9408 10.2606,-6.0144 10.2606,-12.0582v-7.644c0,-6.0186 -4.2798,-11.0754 -10.1892,-12.0456z" id="overlayBgMask" fill="none"></path>
    </clipPath>
  </defs>
  <g clip-path="url(#clip-1)" fill-rule="nonzero" stroke="none" stroke-width="1" stroke-linecap="butt" stroke-linejoin="miter" stroke-miterlimit="10" stroke-dasharray="" stroke-dashoffset="0" font-family="none" font-weight="none" font-size="none" text-anchor="none" style="mix-blend-mode: normal">
    <g transform="scale(4,4)">
      <path d="M20,10c-3.314,0 -6,2.686 -6,6v32c0,3.314 2.686,6 6,6h24c3.314,0 6,-2.686 6,-6v-32c0,-3.314 -2.686,-6 -6,-6zM20,14h5c0,1.657 1.343,3 3,3h8c1.657,0 3,-1.343 3,-3h5c1.105,0 2,0.895 2,2v32c0,1.105 -0.895,2 -2,2h-24c-1.105,0 -2,-0.895 -2,-2v-32c0,-1.105 0.895,-2 2,-2zM24,24c-1.104,0 -2,0.896 -2,2c0,1.104 0.896,2 2,2h16c1.104,0 2,-0.896 2,-2c0,-1.104 -0.896,-2 -2,-2zM24,32c-1.104,0 -2,0.896 -2,2c0,1.104 0.896,2 2,2h11c1.104,0 2,-0.896 2,-2c0,-1.104 -0.896,-2 -2,-2zM24,40c-1.104,0 -2,0.896 -2,2c0,1.104 0.896,2 2,2h14c1.104,0 2,-0.896 2,-2c0,-1.104 -0.896,-2 -2,-2z"></path>
    </g>
  </g>
  <g fill-rule="nonzero" stroke="none" stroke-width="1" stroke-linecap="butt" stroke-linejoin="miter" stroke-miterlimit="10" stroke-dasharray="" stroke-dashoffset="0" font-family="none" font-weight="none" font-size="none" text-anchor="none" style="mix-blend-mode: normal">
    <g transform="translate(146,145) scale(4.2,4.2)" id="overlay">
      <path d="M19.243,8.194c0.438,0.07 0.757,0.452 0.757,0.896v1.819c0,0.444 -0.319,0.826 -0.757,0.896l-1.569,0.271c-0.181,0.667 -0.444,1.299 -0.778,1.882l0.924,1.299c0.25,0.361 0.208,0.854 -0.104,1.167l-1.292,1.292c-0.312,0.312 -0.806,0.354 -1.167,0.104l-1.299,-0.924c-0.583,0.333 -1.215,0.597 -1.882,0.778l-0.271,1.569c-0.069,0.438 -0.451,0.757 -0.895,0.757h-1.82c-0.444,0 -0.826,-0.319 -0.896,-0.757l-0.271,-1.569c-0.667,-0.181 -1.299,-0.444 -1.882,-0.778l-1.299,0.924c-0.361,0.25 -0.854,0.208 -1.167,-0.104l-1.292,-1.292c-0.313,-0.312 -0.354,-0.806 -0.104,-1.167l0.924,-1.299c-0.333,-0.583 -0.597,-1.215 -0.778,-1.882l-1.569,-0.271c-0.437,-0.069 -0.756,-0.451 -0.756,-0.895v-1.82c0,-0.444 0.319,-0.826 0.757,-0.896l1.569,-0.271c0.181,-0.667 0.444,-1.299 0.778,-1.882l-0.923,-1.298c-0.25,-0.361 -0.208,-0.854 0.104,-1.167l1.292,-1.292c0.312,-0.313 0.806,-0.354 1.167,-0.104l1.299,0.924c0.583,-0.333 1.215,-0.597 1.882,-0.778l0.271,-1.569c0.068,-0.438 0.45,-0.757 0.894,-0.757h1.819c0.444,0 0.826,0.319 0.896,0.757l0.271,1.569c0.667,0.181 1.299,0.444 1.882,0.778l1.299,-0.924c0.361,-0.25 0.854,-0.208 1.167,0.104l1.292,1.292c0.312,0.312 0.354,0.806 0.104,1.167l-0.924,1.299c0.333,0.583 0.597,1.215 0.778,1.882zM10,14c2.208,0 4,-1.792 4,-4c0,-2.208 -1.792,-4 -4,-4c-2.208,0 -4,1.792 -4,4c0,2.208 1.792,4 4,4z"></path>
    </g>
  </g>
</svg>