<svg width="667" height="667" viewBox="0 0 667 667" fill="none"
     xmlns="http://www.w3.org/2000/svg">
    <path d="M90.4695 263.415V257.595H86.6002V263.415H80.7802V267.285H86.6002V273.105H90.4695V267.285H96.2895V263.415H90.4695Z"
          fill="#C8D3FB"/>
    <path d="M162.014 166.706V159.265H157.069V166.706H149.628V171.652H157.069V179.093H162.014V171.652H169.456V166.706H162.014Z"
          fill="#C8D3FB"/>
    <path d="M326.242 243.369V229.784H317.211V243.369H303.626V252.4H317.211V265.985H326.242V252.4H339.827V243.369H326.242Z"
          fill="#C8D3FB"/>
    <path d="M516.07 150.367V144.547H512.202V150.367H506.381V154.236H512.202V160.056H516.07V154.236H521.89V150.367H516.07Z"
          fill="#C8D3FB"/>
    <path d="M595.336 183.1V175.658H590.389V183.1H582.949V188.045H590.389V195.486H595.336V188.045H602.776V183.1H595.336Z"
          fill="#C8D3FB"/>
    <path d="M63.3874 216.999V203.414H54.3567V216.999H40.7714V226.03H54.3567V239.615H63.3874V226.03H76.9727V216.999H63.3874Z"
          fill="#C8D3FB"/>
    <mask id="mask0_202_3" style="mask-type:luminance"
          maskUnits="userSpaceOnUse" x="0" y="0" width="667" height="667">
        <path d="M0 6.00815e-05H666.667V666.667H0V6.00815e-05Z" fill="white"/>
    </mask>
    <g mask="url(#mask0_202_3)">
        <path d="M423.079 95.0847C423.079 96.5021 421.931 97.6514 420.513 97.6514C419.095 97.6514 417.946 96.5021 417.946 95.0847C417.946 93.6674 419.095 92.5181 420.513 92.5181C421.931 92.5181 423.079 93.6674 423.079 95.0847Z"
              fill="#EDF1FF"/>
        <path d="M243.935 115.614C243.935 118.299 241.759 120.475 239.074 120.475C236.39 120.475 234.212 118.299 234.212 115.614C234.212 112.93 236.39 110.753 239.074 110.753C241.759 110.753 243.935 112.93 243.935 115.614Z"
              fill="#EDF1FF"/>
        <path d="M81.8347 152.301C81.8347 154.986 79.6587 157.162 76.9733 157.162C74.2893 157.162 72.112 154.986 72.112 152.301C72.112 149.617 74.2893 147.44 76.9733 147.44C79.6587 147.44 81.8347 149.617 81.8347 152.301Z"
              fill="#EDF1FF"/>
        <path d="M612.281 223.589C612.281 225.007 611.132 226.156 609.713 226.156C608.297 226.156 607.146 225.007 607.146 223.589C607.146 222.172 608.297 221.023 609.713 221.023C611.132 221.023 612.281 222.172 612.281 223.589Z"
              fill="#EDF1FF"/>
        <path d="M620.384 440.569C620.384 441.985 619.235 443.136 617.817 443.136C616.4 443.136 615.249 441.985 615.249 440.569C615.249 439.152 616.4 438.001 617.817 438.001C619.235 438.001 620.384 439.152 620.384 440.569Z"
              fill="#EDF1FF"/>
        <path d="M629.689 499.865C629.689 502.549 627.512 504.726 624.828 504.726C622.144 504.726 619.968 502.549 619.968 499.865C619.968 497.179 622.144 495.003 624.828 495.003C627.512 495.003 629.689 497.179 629.689 499.865Z"
              fill="#EDF1FF"/>
        <path d="M40.5853 327.111C40.5853 329.796 38.4093 331.972 35.724 331.972C33.04 331.972 30.864 329.796 30.864 327.111C30.864 324.426 33.04 322.25 35.724 322.25C38.4093 322.25 40.5853 324.426 40.5853 327.111Z"
              fill="#EDF1FF"/>
        <path d="M168.82 97.6517C168.82 99.0691 167.67 100.218 166.253 100.218C164.836 100.218 163.686 99.0691 163.686 97.6517C163.686 96.2344 164.836 95.0851 166.253 95.0851C167.67 95.0851 168.82 96.2344 168.82 97.6517Z"
              fill="#EDF1FF"/>
        <path d="M51.5391 516.392C51.5391 517.809 50.3898 518.959 48.9724 518.959C47.5551 518.959 46.4058 517.809 46.4058 516.392C46.4058 514.975 47.5551 513.825 48.9724 513.825C50.3898 513.825 51.5391 514.975 51.5391 516.392Z"
              fill="#EDF1FF"/>
    </g>
    <mask id="mask1_202_3" style="mask-type:luminance"
          maskUnits="userSpaceOnUse" x="0" y="0" width="667" height="667">
        <path d="M0 6.00815e-05H666.667V666.667H0V6.00815e-05Z" fill="white"/>
    </mask>
    <g mask="url(#mask1_202_3)">
        <path d="M639.612 551.397C639.612 563.962 502.485 574.148 333.333 574.148C164.18 574.148 27.056 563.962 27.056 551.397C27.056 538.832 164.18 528.646 333.333 528.646C502.485 528.646 639.612 538.832 639.612 551.397Z"
              fill="#ECF0FD"/>
        <path d="M534.832 539.25C534.832 539.25 520.535 474.914 609.556 455.991C609.556 455.991 616.711 525.934 534.832 539.25Z"
              fill="#FF735E"/>
    </g>
    <mask id="mask2_202_3" style="mask-type:luminance"
          maskUnits="userSpaceOnUse" x="533" y="455" width="77" height="85">
        <path d="M534.832 539.249C616.711 525.933 609.556 455.991 609.556 455.991C520.535 474.913 534.832 539.249 534.832 539.249Z"
              fill="white"/>
    </mask>
    <g mask="url(#mask2_202_3)">
        <path d="M616.436 470.245L616.563 469.526C616.444 469.505 605.032 467.573 591.629 470.477C596.453 466.675 601.644 462.893 607.279 459.19L606.879 458.581C597.204 464.939 588.771 471.529 581.42 478.059C582.575 462.873 587.421 453.169 587.471 453.07L586.824 452.741C586.772 452.841 581.691 462.973 580.633 478.749C577.336 481.707 574.285 484.647 571.425 487.55C571.399 487.562 571.369 487.575 571.344 487.589L571.357 487.617C569.064 489.947 566.903 492.251 564.876 494.514C562.959 475.825 568.661 462.781 568.719 462.651L568.056 462.353C567.996 462.487 562.065 475.994 564.213 495.246C561.809 497.958 559.616 500.601 557.579 503.165C557.575 503.167 557.568 503.169 557.563 503.171L557.567 503.182C555.951 505.217 554.447 507.198 553.051 509.113C551.736 492.273 552.479 476.303 552.488 476.141L551.76 476.106C551.752 476.271 550.979 492.822 552.391 510.015C547.323 517.058 543.728 523.147 541.317 527.681C538.217 512.999 539.148 492.849 539.16 492.642L538.432 492.606C538.421 492.818 537.447 513.845 540.788 528.681C538.384 533.303 537.329 536.062 537.291 536.169L537.972 536.423C538.028 536.273 540.149 530.743 545.295 522.121C565.999 515.487 588.287 519.998 588.509 520.045L588.656 519.33C588.435 519.285 566.521 514.849 545.849 521.189C548.865 516.217 552.869 510.281 558.008 503.791C576.495 497.433 604.028 501.418 604.304 501.458L604.412 500.738C604.136 500.697 577.457 496.838 558.832 502.755C562.567 498.107 566.889 493.194 571.852 488.15C587.037 480.507 615.367 481.61 615.655 481.623L615.685 480.895C615.411 480.883 589.003 479.857 573.328 486.662C578.339 481.675 583.988 476.581 590.324 471.51C604.208 468.161 616.316 470.222 616.436 470.245Z"
              fill="#FFABA1"/>
    </g>
    <mask id="mask3_202_3" style="mask-type:luminance"
          maskUnits="userSpaceOnUse" x="0" y="0" width="667" height="667">
        <path d="M0 6.00815e-05H666.667V666.667H0V6.00815e-05Z" fill="white"/>
    </mask>
    <g mask="url(#mask3_202_3)">
        <path d="M140.818 445.944C140.818 445.944 56.4824 433.027 75.3944 316.735C75.3944 316.735 163.146 340.901 140.818 445.944Z"
              fill="#FF735E"/>
    </g>
    <mask id="mask4_202_3" style="mask-type:luminance"
          maskUnits="userSpaceOnUse" x="72" y="316" width="73" height="130">
        <path d="M140.819 445.944C163.145 340.901 75.3933 316.735 75.3933 316.735C56.4813 433.027 140.819 445.944 140.819 445.944Z"
              fill="white"/>
    </mask>
    <g mask="url(#mask4_202_3)">
        <path d="M95.819 315.117L95.0137 314.628C94.931 314.76 87.2484 327.625 84.467 345.16C82.1417 337.556 80.0137 329.517 78.1857 320.981L77.263 321.18C80.4004 335.836 84.3964 349.103 88.8284 361.035C71.0444 352.52 61.6097 342.12 61.5137 342.013L60.8124 342.641C60.9084 342.751 70.751 353.632 89.291 362.307C91.315 367.672 93.431 372.733 95.5937 377.544C95.5964 377.584 95.5977 377.623 95.6017 377.661L95.643 377.656C97.379 381.519 99.1457 385.207 100.926 388.712C77.4737 382.261 64.4097 369.264 64.2804 369.133L63.6097 369.795C63.743 369.929 77.2617 383.421 101.499 389.857C103.644 394.029 105.803 397.916 107.943 401.576C107.943 401.584 107.943 401.591 107.942 401.599H107.958C109.656 404.503 111.339 407.247 112.995 409.828C92.0604 403.519 73.139 395.133 72.947 395.045L72.563 395.907C72.759 395.993 92.367 404.688 113.775 411.048C119.899 420.467 125.559 427.659 129.9 432.695C110.731 429.551 86.851 418.977 86.607 418.867L86.223 419.728C86.4737 419.837 111.388 430.876 130.858 433.801C135.308 438.869 138.144 441.436 138.254 441.533L138.879 440.829C138.723 440.692 133.046 435.539 125.054 425.288C126.76 397.193 142.655 372.417 142.815 372.168L142.023 371.656C141.863 371.903 126.235 396.263 124.191 424.181C119.604 418.208 114.32 410.593 108.9 401.352C109.895 376.061 127.616 344.707 127.794 344.392L126.976 343.925C126.796 344.237 109.63 374.624 108.036 399.871C104.18 393.185 100.278 385.665 96.5177 377.311C94.4177 355.404 109.034 321.736 109.183 321.396L108.319 321.02C108.176 321.344 94.5537 352.728 95.4164 374.833C91.747 366.448 88.2497 357.243 85.1017 347.219C87.571 328.895 95.7377 315.253 95.819 315.117Z"
              fill="#FFABA1"/>
    </g>
    <mask id="mask5_202_3" style="mask-type:luminance"
          maskUnits="userSpaceOnUse" x="0" y="0" width="667" height="667">
        <path d="M0 6.00815e-05H666.667V666.667H0V6.00815e-05Z" fill="white"/>
    </mask>
    <g mask="url(#mask5_202_3)">
        <path d="M163.364 534.138C160.357 533.01 157.445 531.574 154.589 530.114C147.14 526.305 140.015 521.854 133.227 516.965C123.261 509.786 113.999 501.64 105.611 492.666C95.0652 481.388 85.8959 468.818 78.3452 455.349C69.1665 438.978 62.3799 421.302 57.8852 403.092C57.2599 400.556 56.6812 398.009 56.1385 395.456C55.7959 393.841 58.2812 393.17 58.6265 394.794C62.5945 413.48 68.8199 431.672 77.6412 448.633C84.8679 462.53 93.7625 475.55 104.165 487.264C112.46 496.606 121.681 505.156 131.679 512.652C138.66 517.888 146.015 522.652 153.717 526.758C156.053 528.004 158.423 529.19 160.835 530.286C161.552 530.612 162.275 530.932 163.001 531.237C162.633 531.082 163.307 531.362 163.469 531.429C163.612 531.486 163.761 531.536 163.901 531.601C163.948 531.622 164 531.638 164.049 531.657C165.587 532.233 164.919 534.721 163.364 534.138Z"
              fill="#FFAD36"/>
        <path d="M63.6895 418.479C63.6895 418.479 75.8415 399.083 49.6521 365.194C49.6521 365.194 44.2908 403.843 63.6895 418.479Z"
              fill="#FFAD36"/>
        <path d="M52.1127 373.28C53.1953 376.481 54.2513 379.681 55.2433 382.9C56.23 386.119 57.21 389.339 58.0487 392.596C58.9847 395.828 59.7433 399.104 60.4913 402.384C60.874 404.024 61.222 405.671 61.5273 407.327C61.9153 408.971 62.1233 410.641 62.4793 412.3C62.2967 408.924 61.9247 405.551 61.3233 402.219C60.7433 398.883 59.97 395.583 59.1127 392.308C58.1793 389.053 57.2087 385.808 56.0433 382.631C54.8793 379.455 53.6167 376.311 52.1127 373.28Z"
              fill="#FFD06E"/>
        <path d="M73.1529 442.047C73.1529 442.047 70.4023 419.323 28.7263 409.448C28.7263 409.448 48.8663 442.868 73.1529 442.047Z"
              fill="#FFAD36"/>
        <path d="M35.7247 414.186C38.5807 415.994 41.414 417.82 44.2087 419.697C47.002 421.578 49.7873 423.465 52.4887 425.47C55.2487 427.394 57.8993 429.465 60.5433 431.545C61.8713 432.578 63.178 433.64 64.4567 434.734C65.7927 435.769 67.006 436.937 68.326 438.001C66.0593 435.493 63.65 433.104 61.086 430.892C58.5367 428.662 55.8607 426.584 53.134 424.577C50.362 422.634 47.566 420.721 44.662 418.985C41.7593 417.246 38.8007 415.598 35.7247 414.186Z"
              fill="#FFD06E"/>
        <path d="M73.4616 441.382C73.4616 441.382 93.0709 429.576 85.0336 387.507C85.0336 387.507 62.7762 419.556 73.4616 441.382Z"
              fill="#FFAD36"/>
        <path d="M83.5729 395.831C83.0903 399.177 82.5849 402.508 82.0156 405.827C81.4409 409.144 80.8583 412.46 80.1329 415.744C79.5063 419.049 78.7023 422.315 77.8863 425.58C77.4863 427.213 77.0516 428.84 76.5756 430.456C76.1783 432.097 75.6089 433.683 75.1769 435.321C76.5396 432.228 77.7329 429.052 78.7036 425.807C79.6943 422.569 80.4969 419.276 81.2116 415.968C81.8516 412.643 82.4543 409.309 82.8503 405.949C83.2489 402.589 83.5436 399.215 83.5729 395.831Z"
              fill="#FFD06E"/>
        <path d="M91.526 473.287C91.526 473.287 84.7486 451.424 41.978 449.173C41.978 449.173 67.778 478.445 91.526 473.287Z"
              fill="#FFAD36"/>
        <path d="M49.7123 452.582C52.8456 453.85 55.9603 455.137 59.0456 456.484C62.1296 457.833 65.2096 459.192 68.2256 460.681C71.2856 462.08 74.2656 463.641 77.2389 465.214C78.7309 465.993 80.2056 466.804 81.6603 467.652C83.1589 468.43 84.5629 469.361 86.0509 470.172C83.3736 468.11 80.5736 466.192 77.6563 464.474C74.7483 462.738 71.7429 461.172 68.7003 459.686C65.6256 458.272 62.5336 456.889 59.3643 455.701C56.1976 454.512 52.9909 453.418 49.7123 452.582Z"
              fill="#FFD06E"/>
        <path d="M91.7096 472.577C91.7096 472.577 108.887 457.449 93.4443 417.501C93.4443 417.501 77.2883 453.018 91.7096 472.577Z"
              fill="#FFAD36"/>
        <path d="M93.4987 425.953C93.6227 429.331 93.7227 432.699 93.756 436.067C93.7853 439.433 93.8067 442.799 93.6813 446.16C93.6573 449.524 93.4507 452.881 93.232 456.239C93.132 457.919 92.996 459.595 92.8173 461.271C92.72 462.957 92.4427 464.619 92.312 466.309C93.0987 463.021 93.704 459.683 94.0773 456.316C94.472 452.953 94.672 449.569 94.7827 446.187C94.816 442.801 94.812 439.415 94.6 436.036C94.3907 432.66 94.076 429.287 93.4987 425.953Z"
              fill="#FFD06E"/>
        <path d="M117.292 502.637C117.292 502.637 105.289 483.147 63.3037 491.607C63.3037 491.607 95.5744 513.541 117.292 502.637Z"
              fill="#FFAD36"/>
        <path d="M71.6418 492.983C74.9925 493.433 78.3285 493.903 81.6538 494.442C84.9765 494.982 88.2965 495.53 91.5885 496.223C94.9005 496.817 98.1738 497.589 101.446 498.371C103.085 498.754 104.715 499.174 106.335 499.633C107.981 500.013 109.571 500.566 111.215 500.982C108.109 499.651 104.919 498.49 101.666 497.553C98.4178 496.594 95.1165 495.825 91.8018 495.142C88.4712 494.535 85.1312 493.967 81.7672 493.605C78.4032 493.239 75.0258 492.979 71.6418 492.983Z"
              fill="#FFD06E"/>
        <path d="M117.294 501.905C117.294 501.905 130.168 482.98 105.274 448.128C105.274 448.128 98.4603 486.546 117.294 501.905Z"
              fill="#FFAD36"/>
        <path d="M107.428 456.3C108.39 459.541 109.324 462.777 110.194 466.032C111.06 469.285 111.918 472.54 112.632 475.828C113.446 479.092 114.08 482.394 114.704 485.7C115.024 487.352 115.31 489.01 115.554 490.677C115.879 492.334 116.024 494.013 116.318 495.682C116.262 492.304 116.018 488.918 115.542 485.565C115.088 482.21 114.439 478.882 113.706 475.578C112.896 472.29 112.048 469.012 111.004 465.793C109.96 462.574 108.818 459.385 107.428 456.3Z"
              fill="#FFD06E"/>
        <path d="M146.052 524.522C146.052 524.522 130.892 507.373 90.9721 522.889C90.9721 522.889 126.52 538.979 146.052 524.522Z"
              fill="#FFAD36"/>
        <path d="M99.4238 522.819C102.802 522.688 106.169 522.582 109.537 522.543C112.904 522.508 116.269 522.48 119.63 522.599C122.996 522.618 126.353 522.818 129.71 523.03C131.39 523.127 133.068 523.26 134.742 523.436C136.429 523.53 138.092 523.803 139.782 523.931C136.493 523.151 133.153 522.552 129.786 522.184C126.424 521.795 123.038 521.603 119.654 521.498C116.27 521.47 112.884 521.482 109.506 521.699C106.129 521.915 102.757 522.236 99.4238 522.819Z"
              fill="#FFD06E"/>
        <path d="M145.928 523.8C145.928 523.8 155.376 502.95 124.887 472.872C124.887 472.872 124.746 511.89 145.928 523.8Z"
              fill="#FFAD36"/>
        <path d="M128.408 480.555C129.91 483.583 131.383 486.614 132.798 489.671C134.207 492.728 135.608 495.788 136.876 498.904C138.235 501.98 139.426 505.127 140.606 508.278C141.204 509.851 141.77 511.435 142.294 513.035C142.898 514.614 143.328 516.243 143.903 517.836C143.27 514.518 142.45 511.223 141.408 508.002C140.387 504.772 139.179 501.606 137.891 498.475C136.531 495.375 135.135 492.29 133.555 489.296C131.976 486.304 130.304 483.359 128.408 480.555Z"
              fill="#FFD06E"/>
        <path d="M498.497 500.871C501.429 499.563 504.249 497.954 507.012 496.323C514.217 492.069 521.059 487.194 527.537 481.903C537.051 474.134 545.803 465.442 553.632 455.978C563.473 444.078 571.864 430.977 578.585 417.077C586.756 400.178 592.46 382.123 595.843 363.675C596.313 361.106 596.737 358.529 597.124 355.947C597.367 354.315 594.847 353.795 594.6 355.438C591.771 374.33 586.659 392.865 578.881 410.33C572.511 424.638 564.42 438.174 554.748 450.497C547.032 460.323 538.347 469.415 528.821 477.505C522.171 483.153 515.119 488.353 507.68 492.919C505.421 494.305 503.129 495.633 500.789 496.873C500.091 497.242 499.391 497.603 498.684 497.954C499.041 497.777 498.387 498.097 498.228 498.173C498.088 498.238 497.943 498.297 497.805 498.37C497.76 498.395 497.711 498.414 497.663 498.435C496.163 499.105 496.98 501.547 498.497 500.871Z"
              fill="#FFAD36"/>
        <path d="M590.982 379.387C590.982 379.387 577.676 360.762 601.766 325.35C601.766 325.35 609.458 363.602 590.982 379.387Z"
              fill="#FFAD36"/>
        <path d="M599.798 333.568C598.912 336.83 598.052 340.088 597.257 343.361C596.466 346.633 595.684 349.906 595.045 353.208C594.306 356.49 593.746 359.808 593.2 363.126C592.917 364.786 592.669 366.45 592.464 368.122C592.177 369.786 592.069 371.468 591.816 373.144C591.793 369.764 591.96 366.373 592.358 363.012C592.734 359.646 593.308 356.305 593.965 352.985C594.7 349.68 595.47 346.382 596.441 343.141C597.412 339.898 598.481 336.685 599.798 333.568Z"
              fill="#FFD06E"/>
        <path d="M582.962 403.483C582.962 403.483 584.332 380.634 625.333 368.253C625.333 368.253 607.256 402.833 582.962 403.483Z"
              fill="#FFAD36"/>
        <path d="M618.634 373.406C615.893 375.385 613.175 377.378 610.499 379.422C607.827 381.469 605.159 383.521 602.586 385.686C599.946 387.773 597.426 390.001 594.913 392.237C593.65 393.349 592.41 394.488 591.199 395.657C589.93 396.772 588.789 398.01 587.537 399.154C589.646 396.513 591.907 393.982 594.331 391.618C596.741 389.24 599.287 387.001 601.887 384.833C604.537 382.725 607.211 380.648 610.005 378.737C612.797 376.826 615.65 375.001 618.634 373.406Z"
              fill="#FFD06E"/>
        <path d="M582.615 402.839C582.615 402.839 562.325 392.243 567.8 349.763C567.8 349.763 591.959 380.405 582.615 402.839Z"
              fill="#FFAD36"/>
        <path d="M569.763 357.984C570.447 361.294 571.152 364.588 571.923 367.867C572.696 371.144 573.479 374.416 574.402 377.652C575.228 380.914 576.23 384.124 577.24 387.334C577.738 388.94 578.271 390.538 578.844 392.122C579.342 393.735 580.006 395.284 580.535 396.894C578.988 393.888 577.604 390.79 576.439 387.611C575.254 384.439 574.252 381.199 573.339 377.94C572.499 374.66 571.696 371.371 571.096 368.039C570.495 364.711 569.996 361.359 569.763 357.984Z"
              fill="#FFD06E"/>
        <path d="M566.517 435.779C566.517 435.779 571.957 413.545 614.512 408.708C614.512 408.708 590.533 439.489 566.517 435.779Z"
              fill="#FFAD36"/>
        <path d="M606.999 412.578C603.948 414.036 600.917 415.508 597.917 417.04C594.921 418.574 591.929 420.114 589.011 421.784C586.04 423.366 583.161 425.106 580.288 426.856C578.847 427.722 577.423 428.621 576.023 429.556C574.573 430.425 573.229 431.44 571.792 432.338C574.34 430.118 577.019 428.034 579.827 426.144C582.624 424.233 585.529 422.489 588.475 420.821C591.46 419.221 594.463 417.657 597.553 416.277C600.643 414.898 603.777 413.613 606.999 412.578Z"
              fill="#FFD06E"/>
        <path d="M566.29 435.082C566.29 435.082 548.226 421.023 561.221 380.213C561.221 380.213 579.5 414.685 566.29 435.082Z"
              fill="#FFAD36"/>
        <path d="M561.68 388.651C561.761 392.031 561.865 395.399 562.036 398.762C562.209 402.124 562.392 405.484 562.721 408.832C562.949 412.188 563.36 415.527 563.78 418.864C563.982 420.536 564.22 422.202 564.5 423.863C564.7 425.54 565.076 427.182 565.309 428.86C564.325 425.627 563.518 422.331 562.941 418.995C562.344 415.662 561.938 412.295 561.624 408.926C561.385 405.548 561.185 402.168 561.192 398.784C561.196 395.4 561.305 392.014 561.68 388.651Z"
              fill="#FFD06E"/>
        <path d="M542.575 466.637C542.575 466.637 553.377 446.454 595.797 452.355C595.797 452.355 564.914 476.205 542.575 466.637Z"
              fill="#FFAD36"/>
        <path d="M587.557 454.236C584.24 454.886 580.939 455.558 577.652 456.297C574.368 457.038 571.087 457.786 567.844 458.677C564.573 459.47 561.353 460.438 558.135 461.418C556.523 461.9 554.919 462.417 553.331 462.974C551.711 463.454 550.156 464.102 548.541 464.617C551.561 463.1 554.675 461.748 557.864 460.614C561.048 459.461 564.297 458.492 567.565 457.61C570.853 456.805 574.152 456.034 577.488 455.468C580.823 454.901 584.18 454.434 587.557 454.236Z"
              fill="#FFD06E"/>
        <path d="M542.53 465.905C542.53 465.905 528.533 447.794 551.27 411.498C551.27 411.498 560.398 449.434 542.53 465.905Z"
              fill="#FFAD36"/>
        <path d="M549.613 419.787C548.852 423.081 548.115 426.368 547.443 429.668C546.776 432.969 546.117 436.268 545.603 439.592C544.988 442.901 544.555 446.237 544.133 449.575C543.913 451.243 543.729 452.916 543.585 454.593C543.363 456.267 543.319 457.951 543.128 459.636C542.977 456.259 543.017 452.867 543.289 449.491C543.537 446.113 543.984 442.753 544.516 439.411C545.125 436.08 545.772 432.756 546.62 429.48C547.467 426.203 548.415 422.951 549.613 419.787Z"
              fill="#FFD06E"/>
        <path d="M515.194 490.224C515.194 490.224 529.286 472.188 570.073 485.256C570.073 485.256 535.566 503.472 515.194 490.224Z"
              fill="#FFAD36"/>
        <path d="M561.634 485.699C558.254 485.774 554.886 485.871 551.522 486.037C548.161 486.205 544.799 486.382 541.45 486.703C538.094 486.926 534.754 487.33 531.415 487.745C529.745 487.943 528.078 488.177 526.417 488.454C524.739 488.651 523.097 489.023 521.417 489.254C524.653 488.277 527.95 487.475 531.287 486.905C534.622 486.313 537.989 485.915 541.359 485.606C544.737 485.374 548.118 485.179 551.502 485.191C554.885 485.203 558.271 485.319 561.634 485.699Z"
              fill="#FFD06E"/>
        <path d="M515.274 489.495C515.274 489.495 504.58 469.257 533.191 437.385C533.191 437.385 535.696 476.325 515.274 489.495Z"
              fill="#FFAD36"/>
        <path d="M530.142 445.268C528.827 448.383 527.539 451.496 526.314 454.632C525.091 457.771 523.878 460.908 522.802 464.096C521.631 467.25 520.634 470.463 519.647 473.679C519.145 475.286 518.677 476.902 518.25 478.531C517.742 480.142 517.411 481.794 516.935 483.42C517.366 480.068 517.985 476.731 518.83 473.452C519.653 470.168 520.667 466.932 521.763 463.731C522.933 460.554 524.138 457.388 525.535 454.306C526.929 451.223 528.419 448.182 530.142 445.268Z"
              fill="#FFD06E"/>
        <path d="M542.654 536.639C542.654 542.506 537.852 547.306 531.987 547.306H134.68C128.814 547.306 124.014 542.506 124.014 536.639V293.999C124.014 288.134 128.814 283.333 134.68 283.333H531.987C537.852 283.333 542.654 288.134 542.654 293.999V536.639Z"
              fill="#6680E1"/>
        <path d="M505.156 530.412H161.511V300.229H505.156V530.412Z"
              fill="#E1ECFD"/>
        <path d="M354.328 416.572C352.825 418.626 350.281 420.926 346.692 423.472C344.279 425.234 342.516 426.589 341.407 427.536C340.297 428.482 339.465 429.541 338.911 430.716C338.356 431.89 338.079 433.326 338.079 435.021V436.882H320.852V434.826C320.852 428.17 323.495 422.982 328.78 419.262L331.324 417.5C333.74 415.936 335.42 414.648 336.365 413.636C337.311 412.625 337.787 411.369 337.787 409.868C337.787 406.082 334.62 404.189 328.291 404.189C325.355 404.189 322.319 404.581 319.187 405.365C316.056 406.146 313.085 407.258 310.28 408.692V393.617C316.283 390.877 323.005 389.508 330.444 389.508C338.469 389.508 344.835 391.189 349.531 394.548C354.231 397.91 356.577 402.558 356.577 408.496C356.577 411.824 355.828 414.516 354.328 416.572ZM335.877 458.269C334.081 459.998 331.912 460.864 329.367 460.864C326.757 460.864 324.585 459.998 322.859 458.269C321.129 456.541 320.264 454.404 320.264 451.858C320.264 449.249 321.129 447.096 322.859 445.398C324.585 443.702 326.757 442.853 329.367 442.853C331.912 442.853 334.081 443.717 335.877 445.446C337.671 447.177 338.569 449.313 338.569 451.858C338.569 454.404 337.671 456.541 335.877 458.269ZM405.091 381.733H357.835V334.094H261.384V499.865H405.281V381.926L405.091 381.733Z"
              fill="#CDDCF8"/>
        <path d="M365.866 338.323V373.611H400.871L365.866 338.323Z"
              fill="#CDDCF8"/>
        <path d="M320.199 547.307H102.228V386.516H320.199V547.307Z"
              fill="#F4F9FF"/>
        <path d="M320.199 406.571H102.228V386.516H320.199V406.571Z"
              fill="#CDDCF8"/>
        <path d="M119.727 397.005C119.727 399.539 117.672 401.595 115.137 401.595C112.603 401.595 110.548 399.539 110.548 397.005C110.548 394.471 112.603 392.416 115.137 392.416C117.672 392.416 119.727 394.471 119.727 397.005Z"
              fill="#FF735E"/>
        <path d="M135.18 397.005C135.18 399.539 133.125 401.595 130.59 401.595C128.056 401.595 126.001 399.539 126.001 397.005C126.001 394.471 128.056 392.416 130.59 392.416C133.125 392.416 135.18 394.471 135.18 397.005Z"
              fill="#FFAD36"/>
        <path d="M150.633 397.005C150.633 399.539 148.579 401.595 146.044 401.595C143.509 401.595 141.455 399.539 141.455 397.005C141.455 394.471 143.509 392.416 146.044 392.416C148.579 392.416 150.633 394.471 150.633 397.005Z"
              fill="#6680E1"/>
        <path d="M211.712 502.83C198.385 502.83 187.582 492.027 187.582 478.7C187.582 465.375 198.385 454.572 211.712 454.572C215.392 454.572 218.865 455.42 221.986 456.894C220.013 458.61 218.738 461.108 218.738 463.928C218.738 469.095 222.926 473.284 228.094 473.284C230.565 473.284 232.796 472.307 234.469 470.743C235.342 473.237 235.841 475.908 235.841 478.7C235.841 492.027 225.038 502.83 211.712 502.83ZM301.101 476.244C297.397 472.63 293.594 469.45 289.852 466.832C285.898 463.955 281.984 461.612 278.629 459.672C271.212 455.542 263.696 452.204 256.3 449.764C242.017 444.979 227.466 442.654 211.813 442.654H211.705C195.908 442.728 181.328 445.083 167.15 449.854C159.766 452.295 152.252 455.624 144.769 459.777C141.478 461.669 137.577 463.992 133.645 466.843C129.84 469.495 126.037 472.656 122.344 476.238L119.802 478.7L122.344 481.166C126.036 484.747 129.838 487.908 133.593 490.524C137.577 493.412 141.478 495.735 144.814 497.652C152.252 501.782 159.766 505.111 167.133 507.544C181.33 512.322 195.909 514.678 211.717 514.748H211.826C227.472 514.748 242.021 512.422 256.288 507.643C263.693 505.199 271.209 501.864 278.676 497.704C281.984 495.792 285.898 493.45 289.8 490.608C293.597 487.952 297.4 484.772 301.101 481.159L303.621 478.7L301.101 476.244Z"
              fill="#CDDCF8"/>
        <path d="M211.214 523.661C200.696 523.661 191.019 520.023 183.352 513.949L246.462 450.84C252.535 458.507 256.175 468.184 256.175 478.7C256.175 503.492 236.006 523.661 211.214 523.661ZM211.214 433.741C221.731 433.741 231.408 437.38 239.074 443.452L175.964 506.561C169.892 498.895 166.254 489.217 166.254 478.7C166.254 453.911 186.422 433.741 211.214 433.741ZM211.214 423.293C180.66 423.293 155.804 448.148 155.804 478.7C155.804 509.252 180.66 534.109 211.214 534.109C241.767 534.109 266.623 509.252 266.623 478.7C266.623 448.148 241.767 423.293 211.214 423.293Z"
              fill="#FF735E"/>
        <path d="M564.437 355.687H359.848V204.765H564.437V355.687Z"
              fill="#F2F2F2"/>
        <path d="M564.437 223.589H359.848V204.765H564.437V223.589Z"
              fill="#DDEAFD"/>
        <path d="M376.272 214.611C376.272 216.99 374.344 218.918 371.964 218.918C369.584 218.918 367.656 216.99 367.656 214.611C367.656 212.233 369.584 210.303 371.964 210.303C374.344 210.303 376.272 212.233 376.272 214.611Z"
              fill="#FF735E"/>
        <path d="M390.776 214.611C390.776 216.99 388.848 218.918 386.469 218.918C384.089 218.918 382.161 216.99 382.161 214.611C382.161 212.233 384.089 210.303 386.469 210.303C388.848 210.303 390.776 212.233 390.776 214.611Z"
              fill="#FFAD36"/>
        <path d="M405.281 214.611C405.281 216.99 403.353 218.918 400.975 218.918C398.595 218.918 396.667 216.99 396.667 214.611C396.667 212.233 398.595 210.303 400.975 210.303C403.353 210.303 405.281 212.233 405.281 214.611Z"
              fill="#6680E1"/>
        <path d="M283.299 283.333H190.164L223.715 160.199H249.748L283.299 283.333Z"
              fill="#FFAD36"/>
    </g>
    <mask id="mask6_202_3" style="mask-type:luminance"
          maskUnits="userSpaceOnUse" x="190" y="160" width="94" height="124">
        <path d="M223.713 160.2L190.164 283.333H283.299L249.749 160.2H223.713Z"
              fill="white"/>
    </mask>
    <g mask="url(#mask6_202_3)">
        <path d="M311.459 226.169H162.005V211.856H311.459V226.169Z"
              fill="#FFD06E"/>
        <path d="M311.459 261.492H162.005V247.18H311.459V261.492Z"
              fill="#FFD06E"/>
        <path d="M311.459 190.845H162.005V176.533H311.459V190.845Z"
              fill="#FFD06E"/>
    </g>
    <mask id="mask7_202_3" style="mask-type:luminance"
          maskUnits="userSpaceOnUse" x="0" y="0" width="667" height="667">
        <path d="M0 6.00815e-05H666.667V666.667H0V6.00815e-05Z" fill="white"/>
    </mask>
    <g mask="url(#mask7_202_3)">
        <mask id="mask8_202_3" style="mask-type:luminance"
              maskUnits="userSpaceOnUse" x="237" y="160" width="47"
              height="124">
            <path d="M237.408 160.199H283.299V283.333H237.408V160.199Z"
                  fill="white"/>
        </mask>
        <g mask="url(#mask8_202_3)">
            <g opacity="0.100006">
                <path d="M283.299 283.333L249.748 160.199H237.408C247.447 177.613 253.455 199.701 253.455 223.741C253.455 245.999 248.304 266.583 239.573 283.333H283.299Z"
                      fill="#0044A4"/>
            </g>
        </g>
        <path d="M292.955 283.333H180.509V275.457H292.955V283.333Z"
              fill="#FF735E"/>
        <mask id="mask9_202_3" style="mask-type:luminance"
              maskUnits="userSpaceOnUse" x="200" y="169" width="32"
              height="100">
            <path d="M200.987 169.179H231.427V268.387H200.987V169.179Z"
                  fill="white"/>
        </mask>
        <g mask="url(#mask9_202_3)">
            <g opacity="0.300003">
                <path d="M226.884 170.813C223.975 181.491 221.066 192.17 218.156 202.847C213.523 219.854 208.888 236.862 204.255 253.869C203.195 257.755 202.136 261.641 201.079 265.527C200.296 268.397 204.747 269.621 205.528 266.754L214.258 234.719C218.891 217.711 223.524 200.705 228.159 183.698C229.218 179.811 230.276 175.925 231.335 172.039C232.118 169.17 227.666 167.946 226.884 170.813Z"
                      fill="white"/>
            </g>
        </g>
        <path d="M564.712 547.306H404.459L462.186 335.433H506.984L564.712 547.306Z"
              fill="#FFAD36"/>
    </g>
    <mask id="mask10_202_3" style="mask-type:luminance"
          maskUnits="userSpaceOnUse" x="404" y="335" width="161" height="213">
        <path d="M462.185 335.432L404.459 547.307H564.713L506.984 335.432H462.185Z"
              fill="white"/>
    </mask>
    <g mask="url(#mask10_202_3)">
        <path d="M613.165 448.945H356.005V424.317H613.165V448.945Z"
              fill="#FFD06E"/>
        <path d="M613.165 509.725H356.005V485.097H613.165V509.725Z"
              fill="#FFD06E"/>
        <path d="M613.165 388.165H356.005V363.537H613.165V388.165Z"
              fill="#FFD06E"/>
    </g>
    <mask id="mask11_202_3" style="mask-type:luminance"
          maskUnits="userSpaceOnUse" x="0" y="0" width="667" height="667">
        <path d="M0 6.00815e-05H666.667V666.667H0V6.00815e-05Z" fill="white"/>
    </mask>
    <g mask="url(#mask11_202_3)">
        <mask id="mask12_202_3" style="mask-type:luminance"
              maskUnits="userSpaceOnUse" x="485" y="335" width="80"
              height="213">
            <path d="M485.749 335.432H564.712V547.306H485.749V335.432Z"
                  fill="white"/>
        </mask>
        <g mask="url(#mask12_202_3)">
            <g opacity="0.100006">
                <path d="M564.712 547.306L506.984 335.433H485.748C503.023 365.395 513.359 403.403 513.359 444.769C513.359 483.065 504.499 518.483 489.476 547.306H564.712Z"
                      fill="#0044A4"/>
            </g>
        </g>
        <path d="M581.327 547.307H387.844V533.755H581.327V547.307Z"
              fill="#FF735E"/>
        <mask id="mask13_202_3" style="mask-type:luminance"
              maskUnits="userSpaceOnUse" x="423" y="350" width="53"
              height="172">
            <path d="M423.08 350.884H475.457V521.588H423.08V350.884Z"
                  fill="white"/>
        </mask>
        <g mask="url(#mask13_202_3)">
            <g opacity="0.300003">
                <path d="M467.642 353.694C462.635 372.068 457.629 390.444 452.623 408.817C444.65 438.08 436.675 467.344 428.703 496.608C426.882 503.293 425.059 509.981 423.237 516.666C421.891 521.605 429.551 523.712 430.895 518.778C435.902 500.404 440.907 482.03 445.914 463.657C453.889 434.392 461.861 405.129 469.835 375.866C471.657 369.178 473.478 362.493 475.299 355.805C476.646 350.868 468.986 348.761 467.642 353.694Z"
                      fill="white"/>
            </g>
        </g>
        <path d="M518.591 202.467L439.339 183.717L440.658 178.141L519.911 196.891L518.591 202.467Z"
              fill="#FF735E"/>
        <path d="M485.371 186.757L483.172 196.05L520.01 204.765L522.21 195.471L485.371 186.757Z"
              fill="#6680E1"/>
        <path d="M455.747 181.718C451.955 197.746 435.887 207.665 419.861 203.873C403.831 200.081 393.913 184.014 397.706 167.986C401.497 151.96 417.563 142.04 433.591 145.832C449.619 149.624 459.539 165.69 455.747 181.718Z"
              fill="#6680E1"/>
        <path d="M449.413 180.22C446.448 192.749 433.888 200.502 421.36 197.538C408.83 194.574 401.076 182.014 404.041 169.485C407.004 156.956 419.564 149.202 432.093 152.166C444.622 155.13 452.377 167.69 449.413 180.22Z"
              fill="#BECFF4"/>
        <path d="M441.103 166.128C440.16 170.109 436.171 172.572 432.188 171.63C428.208 170.688 425.744 166.698 426.685 162.717C427.628 158.737 431.619 156.273 435.6 157.214C439.58 158.156 442.044 162.146 441.103 166.128Z"
              fill="white"/>
        <path d="M301.359 189.486C300.547 187.98 300.398 186.374 300.91 184.669C301.435 182.92 302.447 181.652 303.947 180.862C305.446 180.073 307.073 179.941 308.821 180.466C310.526 180.978 311.805 181.993 312.661 183.513C313.513 185.033 313.686 186.645 313.174 188.35C312.662 190.054 311.63 191.306 310.082 192.104C308.53 192.902 306.903 193.044 305.198 192.533C303.45 192.008 302.167 190.992 301.359 189.486ZM304.729 173.376C306.069 168.916 308.883 165.972 313.171 164.542L315.231 163.874C317.163 163.312 318.549 162.786 319.387 162.298C320.222 161.812 320.794 161.065 321.097 160.058C321.857 157.524 320.115 155.618 315.875 154.345C313.909 153.754 311.797 153.406 309.539 153.301C307.285 153.196 305.071 153.342 302.903 153.738L305.935 143.64C310.507 143.012 315.287 143.445 320.271 144.941C325.649 146.556 329.574 148.961 332.046 152.158C334.518 155.354 335.157 158.942 333.962 162.92C333.293 165.15 332.249 166.802 330.831 167.878C329.41 168.953 327.242 169.982 324.327 170.965C322.354 171.661 320.901 172.213 319.967 172.625C319.034 173.036 318.263 173.577 317.657 174.253C317.047 174.93 316.574 175.836 316.233 176.97L315.858 178.218L304.315 174.753L304.729 173.376Z"
              fill="#E1E7FF"/>
        <path d="M127.901 212.3C129.57 212.673 130.882 213.613 131.836 215.116C132.812 216.658 133.108 218.254 132.721 219.905C132.336 221.554 131.37 222.869 129.828 223.846C128.324 224.798 126.718 225.101 125.01 224.75C123.302 224.4 121.972 223.474 121.018 221.97C120.066 220.466 119.797 218.866 120.209 217.174C120.622 215.481 121.581 214.157 123.085 213.204C124.626 212.226 126.234 211.925 127.901 212.3ZM137.865 225.4C140.357 229.333 140.738 233.388 139.009 237.565L138.164 239.558C137.324 241.388 136.813 242.778 136.633 243.73C136.453 244.682 136.642 245.602 137.205 246.489C138.622 248.725 141.202 248.658 144.941 246.289C146.677 245.189 148.322 243.821 149.881 242.185C151.437 240.55 152.777 238.782 153.898 236.884L159.541 245.792C157.021 249.658 153.562 252.985 149.166 255.77C144.424 258.776 140.034 260.165 136.001 259.938C131.965 259.712 128.837 257.844 126.614 254.336C125.368 252.369 124.804 250.498 124.92 248.721C125.038 246.944 125.68 244.633 126.848 241.785C127.614 239.84 128.149 238.38 128.45 237.405C128.75 236.43 128.846 235.493 128.733 234.592C128.621 233.689 128.246 232.737 127.613 231.736L126.916 230.636L137.096 224.185L137.865 225.4Z"
              fill="#E1E7FF"/>
        <path d="M584.325 291.445C583.748 290.375 583.643 289.233 584.007 288.023C584.38 286.78 585.099 285.879 586.165 285.319C587.229 284.757 588.385 284.664 589.627 285.037C590.839 285.401 591.747 286.123 592.355 287.201C592.961 288.281 593.083 289.427 592.72 290.639C592.356 291.849 591.623 292.739 590.521 293.305C589.42 293.872 588.264 293.973 587.053 293.609C585.811 293.236 584.901 292.515 584.325 291.445ZM586.72 280C587.672 276.832 589.671 274.74 592.719 273.724L594.181 273.249C595.553 272.849 596.537 272.476 597.132 272.131C597.728 271.784 598.132 271.253 598.348 270.539C598.888 268.737 597.651 267.384 594.639 266.48C593.241 266.06 591.741 265.813 590.137 265.739C588.536 265.664 586.964 265.768 585.423 266.049L587.576 258.875C590.825 258.428 594.221 258.736 597.761 259.8C601.581 260.947 604.371 262.656 606.127 264.927C607.883 267.197 608.336 269.747 607.488 272.572C607.013 274.156 606.271 275.331 605.263 276.095C604.253 276.859 602.715 277.588 600.643 278.288C599.243 278.781 598.209 279.173 597.545 279.467C596.883 279.759 596.336 280.143 595.904 280.624C595.471 281.104 595.135 281.748 594.893 282.555L594.627 283.44L586.427 280.979L586.72 280Z"
              fill="#E1E7FF"/>
        <path d="M58.6732 293.151C58.6732 294.568 57.5239 295.718 56.1065 295.718C54.6892 295.718 53.5399 294.568 53.5399 293.151C53.5399 291.734 54.6892 290.584 56.1065 290.584C57.5239 290.584 58.6732 291.734 58.6732 293.151Z"
              fill="#DDEAFD"/>
    </g>
    <path d="M414.826 307.443H392.58V299.82L415.519 268.981H427.647V297.741H434.507V307.443H427.647V317.422H414.826V307.443ZM416.697 297.741V283.881L406.51 297.741H416.697ZM458.918 318.462C454.436 318.462 450.509 317.469 447.136 315.482C443.764 313.449 441.153 310.538 439.305 306.75C437.504 302.961 436.603 298.457 436.603 293.236C436.603 288.016 437.504 283.511 439.305 279.723C441.107 275.934 443.671 273.023 446.998 270.991C450.37 268.958 454.344 267.941 458.918 267.941C463.491 267.941 467.442 268.958 470.768 270.991C474.141 273.023 476.728 275.934 478.53 279.723C480.332 283.511 481.233 288.016 481.233 293.236C481.233 298.457 480.309 302.961 478.46 306.75C476.659 310.538 474.071 313.449 470.699 315.482C467.326 317.469 463.399 318.462 458.918 318.462ZM458.918 306.958C462.013 306.958 464.415 305.757 466.125 303.354C467.834 300.952 468.689 297.625 468.689 293.375C468.689 289.078 467.834 285.706 466.125 283.257C464.462 280.762 462.059 279.515 458.918 279.515C455.776 279.515 453.35 280.762 451.641 283.257C449.978 285.706 449.146 289.078 449.146 293.375C449.146 297.625 450.001 300.952 451.71 303.354C453.42 305.757 455.822 306.958 458.918 306.958ZM505.58 307.443H483.335V299.82L506.273 268.981H518.401V297.741H525.262V307.443H518.401V317.422H505.58V307.443ZM507.452 297.741V283.881L497.264 297.741H507.452Z"
          fill="#FF735E"/>
</svg>
